# xmcd
#
# Track frame offsets:
#	150
#	26514
#	55234
#	89078
#	116688
#	143360
#	167986
#	182089
#	209151
#
# Disc length: 2813 seconds
#
# Revision: 1
# Processed by: cddbd v1.5.1PL2 Copyright (c) Steve Scherf et al.
# Submitted via: EasyCDDAExtractor 9.0.0.1
#
DISCID=820afb09
DTITLE=Blue Oyster Cult - Crest Theatre Sacramento 04-11-88 Disc 2
DYEAR=1988
DGENRE=Hard Rock
TTITLE0=In The Presence Of Another World
TTITLE1=Flaming Telepaths
TTITLE2=Then Came The Last Days Of May
TTITLE3=Cities On Flame
TTITLE4=Joan Crawford
TTITLE5=Burnin' For You
TTITLE6=This Ain't The Summer Of Love
TTITLE7=Golden Age Of Leather
TTITLE8=The Red and The Black 
EXTD=
EXTT0=
EXTT1=
EXTT2=
EXTT3=
EXTT4=
EXTT5=
EXTT6=
EXTT7=
EXTT8=
PLAYORDER=
